# xmcd
#
# Track frame offsets:
#	187
#	12030
#	22300
#	32987
#	46000
#	60197
#	72780
#	85925
#	99027
#	111972
#	123697
#	133455
#	144762
#	157227
#	169910
#	183017
#	193032
#	205165
#	218040
#	230007
#	243367
#	254657
#
# Disc length: 3546 seconds
#
# Revision: 0
# Processed by: cddbd v1.5.2PL0 Copyright (c) Steve Scherf et al.
# Submitted via: EasyCDDAExtractor 16.1.0.1
#
DISCID=380dd816
DTITLE=Jim Reeves - The Unforgettable Jim Reeves (Disk 1of 3)
DYEAR=1900
DGENRE=Country
TTITLE0=Welcome to My World
TTITLE1=Is It Really Over?
TTITLE2=He'll Have to Go
TTITLE3=Four Walls
TTITLE4=This Is It
TTITLE5=Blue Side of Lonesome
TTITLE6=When You Are Gone
TTITLE7=Distant Drums
TTITLE8=Have I Told You Lately That I Love You
TTITLE9=I Missed Me
TTITLE10=I Won't Come In While He's There
TTITLE11=My Happiness
TTITLE12=I Love You Because
TTITLE13=Could I Be Falling in Love
TTITLE14=You'll Never Know
TTITLE15=Snowflake
TTITLE16=Maria Elena
TTITLE17=Golden Memories and Silver Tears
TTITLE18=Mexican Joe
TTITLE19=Rosa Rio
TTITLE20=Mexicali Rose
TTITLE21=Adios Amigo
EXTD=
EXTT0=
EXTT1=
EXTT2=
EXTT3=
EXTT4=
EXTT5=
EXTT6=
EXTT7=
EXTT8=
EXTT9=
EXTT10=
EXTT11=
EXTT12=
EXTT13=
EXTT14=
EXTT15=
EXTT16=
EXTT17=
EXTT18=
EXTT19=
EXTT20=
EXTT21=
PLAYORDER=
